Coordinates
version=1
nRows=11
nColumns=40
inDegrees=yes

Units are S.I. units (second, meters, Newtons, ...)
If the header above contains a line with 'inDegrees', this indicates whether rotational values are in degrees (yes) or radians (no).

endheader
time	pelvis_tilt	pelvis_list	pelvis_rotation	pelvis_tx	pelvis_ty	pelvis_tz	hip_flexion_r	hip_adduction_r	hip_rotation_r	knee_angle_r	knee_angle_r_beta	ankle_angle_r	subtalar_angle_r	mtp_angle_r	hip_flexion_l	hip_adduction_l	hip_rotation_l	knee_angle_l	knee_angle_l_beta	ankle_angle_l	subtalar_angle_l	mtp_angle_l	lumbar_extension	lumbar_bending	lumbar_rotation	arm_flex_r	arm_add_r	arm_rot_r	elbow_flex_r	pro_sup_r	wrist_flex_r	wrist_dev_r	arm_flex_l	arm_add_l	arm_rot_l	elbow_flex_l	pro_sup_l	wrist_flex_l	wrist_dev_l
      2.50000000	      7.73197927	     -1.67171370	     -5.45857441	     -0.25350057	      1.06292745	     -1.00044898	      1.10961431	     -4.08621268	      6.97971367	      5.19435750	      0.09065864	     -2.15117732	      0.00000000	      0.00000000	     -3.07562689	      2.03596041	     -6.84379306	     14.68140218	      0.25623881	     -0.63575316	      0.00000000	      0.00000000	     -8.99160481	     -1.71275550	     -0.64135325	     88.13151341	     -7.43336366	     65.34616590	     46.14494170	     83.66429494	      0.00000000	      0.00000000	     89.69462358	    -14.35662147	     69.68759822	     46.87686303	     87.48670638	      0.00000000	      0.00000000
      2.50500000	      7.75418781	     -1.66879403	     -5.43769398	     -0.25365251	      1.06279876	     -1.00060252	      1.16535801	     -4.07138439	      6.90392774	      5.20055489	      0.09076681	     -2.09786996	      0.00000000	      0.00000000	     -2.94496500	      2.01113545	     -7.06967876	     14.98881115	      0.26160411	     -0.54617466	      0.00000000	      0.00000000	     -9.02962781	     -1.71462654	     -0.64595453	     88.17474767	     -7.48312667	     65.42052165	     46.21019705	     83.54089604	      0.00000000	      0.00000000	     89.69886948	    -14.31960786	     69.64926951	     46.86043802	     87.49476848	      0.00000000	      0.00000000
      2.51000000	      7.80243914	     -1.64991832	     -5.45066061	     -0.25399090	      1.06270674	     -1.00069928	      1.18858181	     -4.07913076	      6.99590471	      5.16194241	      0.09009289	     -2.08667047	      0.00000000	      0.00000000	     -2.89270022	      2.02351601	     -7.02263123	     15.16256726	      0.26463672	     -0.58285439	      0.00000000	      0.00000000	     -9.12997619	     -1.72382433	     -0.64211339	     88.22747222	     -7.44440562	     65.32308647	     46.11622411	     83.73834576	      0.00000000	      0.00000000	     89.70349319	    -14.33338738	     69.47982931	     46.87607921	     87.47738772	      0.00000000	      0.00000000
      2.51500000	      7.80060061	     -1.63792589	     -5.50130127	     -0.25424094	      1.06255113	     -1.00073562	      1.28900507	     -4.09265699	      7.05973155	      5.18358434	      0.09047061	     -2.04046591	      0.00000000	      0.00000000	     -2.80247992	      2.02468899	     -7.20349628	     15.30252670	      0.26707947	     -0.46611946	      0.00000000	      0.00000000	     -9.16232321	     -1.73223444	     -0.61602784	     88.25263835	     -7.41024455	     65.33037930	     46.11724272	     83.45284322	      0.00000000	      0.00000000	     89.70746625	    -14.36444513	     69.39612778	     46.90839882	     87.45359546	      0.00000000	      0.00000000
      2.52000000	      7.80385121	     -1.69350499	     -5.39356063	     -0.25443559	      1.06246062	     -1.00097015	      1.32621559	     -4.01769540	      6.99259876	      5.12032604	      0.08936655	     -2.10330095	      0.00000000	      0.00000000	     -2.70221931	      1.94895952	     -7.03481440	     15.51303796	      0.27075359	     -0.45430736	      0.00000000	      0.00000000	     -9.21938779	     -1.64574660	     -0.72207519	     88.33462355	     -7.44009267	     65.58390295	     46.31093103	     79.34652489	      0.00000000	      0.00000000	     89.70496493	    -14.37442874	     69.19065989	     46.93416361	     87.60131785	      0.00000000	      0.00000000
      2.52500000	      7.77351014	     -1.68020066	     -5.34986440	     -0.25494626	      1.06228730	     -1.00113422	      1.48623933	     -4.00084381	      7.03992893	      5.22384156	      0.09117323	     -1.98764479	      0.00000000	      0.00000000	     -2.50907844	      1.93380038	     -7.11592284	     15.78220733	      0.27545148	     -0.38211147	      0.00000000	      0.00000000	     -9.23487597	     -1.66600888	     -0.75527563	     88.29997582	     -7.44485474	     65.08033863	     46.19576573	     83.61403043	      0.00000000	      0.00000000	     89.71519947	    -14.29809277	     69.17389785	     46.83267927	     87.49608731	      0.00000000	      0.00000000
      2.53000000	      7.78026693	     -1.63910509	     -5.25802625	     -0.25509020	      1.06221190	     -1.00139630	      1.53284693	     -4.04554061	      6.99265049	      5.19721432	      0.09070850	     -1.99792965	      0.00000000	      0.00000000	     -2.44164987	      1.97751236	     -6.91727214	     15.89561150	      0.27743076	     -0.33009903	      0.00000000	      0.00000000	     -9.27439856	     -1.68626561	     -0.86362644	     88.29919784	     -7.38980914	     65.12958402	     46.05878461	     83.47159207	      0.00000000	      0.00000000	     89.71726613	    -14.34026994	     69.12264360	     46.88560332	     87.53269372	      0.00000000	      0.00000000
      2.53500000	      7.74703438	     -1.62089238	     -5.23021277	     -0.25540697	      1.06201974	     -1.00146780	      1.67491495	     -4.03551419	      6.96654404	      5.21398060	      0.09100113	     -1.96435849	      0.00000000	      0.00000000	     -2.29301417	      1.97174856	     -6.97815257	     16.08664959	      0.28076500	     -0.33206276	      0.00000000	      0.00000000	     -9.28309542	     -1.70061036	     -0.91654312	     88.33176548	     -7.39019652	     64.98081620	     46.16891520	     83.68036105	      0.00000000	      0.00000000	     89.71994539	    -14.35832589	     69.05836181	     46.88766112	     87.51550934	      0.00000000	      0.00000000
      2.54000000	      7.76760151	     -1.63412216	     -5.19291519	     -0.25577385	      1.06191801	     -1.00158156	      1.73540953	     -4.00455571	      7.04035853	      5.19052155	      0.09059169	     -1.95150172	      0.00000000	      0.00000000	     -2.19091566	      1.93925348	     -7.02246878	     16.29517987	      0.28440454	     -0.25531947	      0.00000000	      0.00000000	     -9.36506442	     -1.68240982	     -0.98172894	     88.42250272	     -7.33684353	     65.27692003	     46.03475313	     83.02462858	      0.00000000	      0.00000000	     89.72231575	    -14.39954222	     68.92309609	     46.93234254	     87.52909918	      0.00000000	      0.00000000
      2.54500000	      7.76735705	     -1.67032309	     -5.18564541	     -0.25601078	      1.06166321	     -1.00172330	      1.83633142	     -3.96669572	      6.97913413	      5.21142902	      0.09095660	     -1.89718829	      0.00000000	      0.00000000	     -2.08133442	      1.88706358	     -7.04331448	     16.52143973	      0.28835352	     -0.10184626	      0.00000000	      0.00000000	     -9.40765403	     -1.63782370	     -0.98862291	     88.46175057	     -7.34851402	     65.25873451	     46.03123727	     83.79854018	      0.00000000	      0.00000000	     89.72683977	    -14.36291965	     68.89361813	     46.89997835	     87.46137386	      0.00000000	      0.00000000
      2.55000000	      7.77408790	     -1.69096044	     -5.16342256	     -0.25635462	      1.06149235	     -1.00178003	      1.89281017	     -3.91269881	      7.09385462	      5.14941987	      0.08987433	     -1.78562691	      0.00000000	      0.00000000	     -1.95831743	      1.84048533	     -7.06196870	     16.75189778	      0.29237577	     -0.09304849	      0.00000000	      0.00000000	     -9.46792672	     -1.60962424	     -1.00814934	     88.48517053	     -7.33323250	     65.26336669	     46.03347660	     83.06970797	      0.00000000	      0.00000000	     89.73035127	    -14.38770519	     68.84758632	     46.94348677	     87.49274453	      0.00000000	      0.00000000
